<svg width="2458" height="407" viewBox="0 0 2458 407" fill="none" xmlns="http://www.w3.org/2000/svg">
<path d="M828.662 309.152C806.508 309.152 786.657 304.48 769.069 295.176C751.521 285.871 737.625 272.844 727.422 256.215C717.218 239.585 712.097 220.184 712.097 198.09C712.097 175.997 717.218 156.12 727.422 139.332C737.625 122.545 751.521 109.558 769.069 100.372C786.618 91.1858 806.469 86.5929 828.662 86.5929C848.235 86.5929 865.863 90.5523 881.545 98.4316C897.228 106.311 909.694 118.466 918.905 134.819C928.116 151.171 932.721 172.275 932.721 198.09C932.721 223.906 928.116 244.178 918.905 260.531C909.694 276.883 897.228 289.078 881.545 297.116C865.863 305.153 848.235 309.152 828.662 309.152ZM835.57 406.04C813.972 406.04 793.208 403.229 773.198 397.646C753.188 392.063 736.553 383.788 723.332 372.899L747.511 332.869C757.595 341.184 770.26 347.955 785.506 353.102C800.752 358.249 816.593 360.863 832.99 360.863C858.042 360.863 876.464 355.042 888.255 343.441C900.047 331.8 905.962 314.221 905.962 290.701V249.801L910.29 198.13L908.583 146.024V89.6021H959.957V284.644C959.957 326.257 949.317 356.903 927.997 376.582C906.677 396.22 875.908 406.079 835.61 406.079L835.57 406.04ZM836.881 263.54C850.419 263.54 862.488 260.729 873.129 255.146C883.769 249.563 892.067 241.803 897.942 231.904C903.818 222.005 906.796 210.721 906.796 198.09C906.796 185.46 903.858 173.423 897.942 163.643C892.027 153.903 883.769 146.262 873.129 140.837C862.488 135.373 850.379 132.641 836.881 132.641C823.382 132.641 811.193 135.373 800.394 140.837C789.595 146.301 781.258 153.903 775.342 163.643C769.427 173.423 766.489 184.906 766.489 198.09C766.489 211.275 769.427 222.005 775.342 231.904C781.258 241.803 789.595 249.563 800.394 255.146C811.193 260.729 823.342 263.54 836.881 263.54Z" fill="#1E1E1E"/>
<path d="M1117.73 322.496C1094.43 322.496 1073.46 317.388 1054.92 307.212C1036.34 297.037 1021.73 283.02 1011.09 265.242C1000.45 247.465 995.131 227.232 995.131 204.544C995.131 181.857 1000.45 160.911 1011.09 143.411C1021.73 125.91 1036.26 112.052 1054.68 101.876C1073.11 91.7006 1094.11 86.5929 1117.73 86.5929C1141.35 86.5929 1162.83 91.7006 1181.41 101.876C1199.99 112.052 1214.52 125.91 1225.01 143.411C1235.53 160.911 1240.77 181.302 1240.77 204.544C1240.77 227.786 1235.53 247.821 1225.01 265.48C1214.49 283.139 1199.87 297.076 1181.18 307.252C1162.48 317.428 1141.31 322.535 1117.73 322.535V322.496ZM1117.73 276.844C1130.95 276.844 1142.78 273.914 1153.15 268.014C1163.51 262.154 1171.65 253.681 1177.52 242.594C1183.44 231.548 1186.38 218.838 1186.38 204.505C1186.38 190.172 1183.44 177.145 1177.52 166.415C1171.61 155.645 1163.51 147.331 1153.15 141.431C1142.78 135.531 1131.11 132.601 1118.17 132.601C1105.22 132.601 1093.55 135.531 1083.19 141.431C1072.83 147.331 1064.61 155.645 1058.57 166.415C1052.54 177.185 1049.52 189.894 1049.52 204.505C1049.52 219.115 1052.54 231.548 1058.57 242.594C1064.61 253.641 1072.83 262.114 1083.19 268.014C1093.55 273.914 1105.07 276.844 1117.73 276.844Z" fill="#1E1E1E"/>
<path d="M1337.64 319.487L1238.78 89.5627H1294.49L1379.96 292.365H1352.33L1440.39 89.5627H1492.2L1393.34 319.487H1337.64Z" fill="#1E1E1E"/>
<path d="M1507.89 322.496C1497.8 322.496 1489.31 319.13 1482.4 312.36C1475.49 305.629 1472.04 296.918 1472.04 286.307C1472.04 275.695 1475.49 267.143 1482.4 260.689C1489.31 254.235 1497.8 250.989 1507.89 250.989C1517.38 250.989 1525.59 254.235 1532.5 260.689C1539.41 267.143 1542.86 275.695 1542.86 286.307C1542.86 296.918 1539.41 305.629 1532.5 312.36C1525.59 319.091 1517.38 322.496 1507.89 322.496Z" fill="#1E1E1E"/>
<path d="M1687.1 322.496C1662.92 322.496 1641.4 317.388 1622.55 307.212C1603.69 297.037 1588.96 283.099 1578.28 265.44C1567.64 247.781 1562.32 227.469 1562.32 204.505C1562.32 181.54 1567.64 160.872 1578.28 143.371C1588.92 125.87 1603.69 112.012 1622.55 101.837C1641.4 91.6609 1662.92 86.5533 1687.1 86.5533C1709.26 86.5533 1728.99 91.1462 1746.26 100.332C1763.53 109.518 1776.47 122.861 1785.13 140.362L1744.11 164.475C1737.21 153.864 1728.79 145.905 1718.86 140.56C1708.94 135.254 1698.22 132.601 1686.7 132.601C1673.48 132.601 1661.53 135.531 1650.85 141.431C1640.21 147.331 1631.88 155.645 1625.8 166.415C1619.77 177.185 1616.75 189.894 1616.75 204.505C1616.75 219.115 1619.77 231.904 1625.8 242.832C1631.84 253.76 1640.17 262.154 1650.85 268.014C1661.49 273.914 1673.44 276.844 1686.7 276.844C1698.22 276.844 1708.94 274.191 1718.86 268.885C1728.79 263.579 1737.21 255.463 1744.11 244.574L1785.13 268.687C1776.51 285.911 1763.53 299.175 1746.26 308.519C1728.99 317.863 1709.26 322.496 1687.1 322.496Z" fill="#1E1E1E"/>
<path d="M1940.32 86.553C1959.02 86.553 1975.5 90.156 1989.75 97.3226C2004 104.489 2015.36 115.536 2023.85 130.463C2032.35 145.39 2036.6 164.475 2036.6 187.716V319.447H1982.64V194.566C1982.64 174.175 1977.88 158.971 1968.39 148.914C1958.9 138.857 1945.36 133.829 1927.82 133.829C1915.15 133.829 1903.91 136.402 1894.15 141.589C1884.34 146.776 1876.8 154.457 1871.48 164.633C1866.16 174.809 1863.5 187.677 1863.5 203.158V319.407H1809.98V-0.000183105H1863.5V152.002L1852.26 132.641C1860.04 117.991 1871.6 106.667 1887 98.6292C1902.41 90.5916 1920.15 86.5926 1940.32 86.5926V86.553Z" fill="#1E1E1E"/>
<path d="M2152.13 322.496C2134.86 322.496 2119.73 319.566 2106.79 313.666C2093.85 307.767 2083.84 299.61 2076.78 289.118C2069.71 278.625 2066.22 266.786 2066.22 253.602C2066.22 240.417 2069.31 229.053 2075.51 218.719C2081.7 208.385 2091.82 200.189 2105.96 194.171C2120.05 188.152 2138.75 185.143 2162.1 185.143H2229.03V220.897H2165.99C2147.84 220.897 2135.54 223.827 2129.06 229.726C2122.59 235.626 2119.34 242.99 2119.34 251.899C2119.34 261.362 2123.23 268.964 2131.01 274.705C2138.79 280.446 2149.59 283.297 2163.41 283.297C2177.22 283.297 2188.5 280.288 2199.02 274.27C2209.54 268.251 2217.2 259.343 2222.13 247.583L2230.74 279.892C2225.58 293.394 2216.33 303.847 2203.11 311.33C2189.89 318.813 2172.9 322.535 2152.17 322.535L2152.13 322.496ZM2224.67 319.487V272.567L2222.09 263.104V181.738C2222.09 165.94 2217.28 153.705 2207.64 144.915C2197.99 136.165 2183.38 131.77 2163.8 131.77C2151.14 131.77 2138.63 133.789 2126.25 137.788C2113.86 141.827 2103.22 147.41 2094.29 154.576L2073.12 115.378C2085.79 105.915 2100.6 98.7483 2117.59 93.8386C2134.58 88.9685 2152.29 86.5136 2170.71 86.5136C2204.38 86.5136 2230.31 94.5513 2248.41 110.627C2266.55 126.702 2275.61 151.369 2275.61 184.668V319.447H2224.67V319.487Z" fill="#1E1E1E"/>
<path d="M2288.75 134.344V91.3048H2442.44V134.344H2288.75ZM2406.19 322.496C2380.86 322.496 2361.28 315.963 2347.47 302.897C2333.65 289.831 2326.74 270.667 2326.74 245.406V38.7631H2380.26V243.703C2380.26 254.631 2383.12 263.065 2388.88 269.123C2394.63 275.141 2402.69 278.15 2413.06 278.15C2424.85 278.15 2434.65 274.983 2442.4 268.687L2457.96 307.015C2451.33 312.162 2443.43 316.042 2434.22 318.655C2425.01 321.229 2415.64 322.535 2406.15 322.535L2406.19 322.496Z" fill="#1E1E1E"/>
<path d="M565.16 33.6152H34.66C15.5235 33.6152 0 49.0965 0 68.181V371.434C0 390.518 15.5235 406 34.66 406H565.12C584.257 406 599.78 390.518 599.78 371.434V68.181C599.78 49.0965 584.257 33.6152 565.12 33.6152H565.16ZM210.421 253.403C201.369 262.233 190.61 266.667 178.144 266.667C164.923 266.667 153.806 262.233 144.754 253.403C135.702 244.574 131.176 233.17 131.176 219.233C131.176 205.296 135.702 194.091 144.754 185.657C153.806 177.184 164.923 172.948 178.144 172.948C190.61 172.948 201.369 177.184 210.421 185.657C219.474 194.13 224 205.336 224 219.233C224 233.131 219.474 244.574 210.421 253.403ZM332.783 253.403C323.731 262.233 312.972 266.667 300.506 266.667C287.285 266.667 276.168 262.233 267.116 253.403C258.064 244.574 253.538 233.17 253.538 219.233C253.538 205.296 258.064 194.091 267.116 185.657C276.168 177.184 287.285 172.948 300.506 172.948C312.972 172.948 323.731 177.184 332.783 185.657C341.836 194.13 346.362 205.336 346.362 219.233C346.362 233.131 341.836 244.574 332.783 253.403ZM455.145 253.403C446.093 262.233 435.334 266.667 422.868 266.667C409.647 266.667 398.53 262.233 389.478 253.403C380.426 244.574 375.9 233.17 375.9 219.233C375.9 205.296 380.426 194.091 389.478 185.657C398.53 177.184 409.647 172.948 422.868 172.948C435.334 172.948 446.093 177.184 455.145 185.657C464.198 194.13 468.724 205.336 468.724 219.233C468.724 233.131 464.198 244.574 455.145 253.403Z" fill="#3AAA35"/>
</svg>
